{
  "accessors": [
    {
      "bufferView": 2,
      "componentType": 5126,
      "count": 610,
      "max": [
        4.294167995452881,
        12.675551414489746,
        2.921072006225586
      ],
      "min": [
        -4.102299213409424,
        -14.038482666015625,
        -0.27533000707626343
      ],
      "type": "VEC3"
    },
    {
      "bufferView": 2,
      "byteOffset": 7320,
      "componentType": 5126,
      "count": 610,
      "max": [
        0.9920347332954407,
        0.9899141788482666,
        0.9999725818634033
      ],
      "min": [
        -0.9785170555114746,
        -0.9992108345031738,
        -0.9999586343765259
      ],
      "type": "VEC3"
    },
    {
      "bufferView": 1,
      "componentType": 5126,
      "count": 610,
      "max": [
        0.875,
        0.75
      ],
      "min": [
        0.625,
        0.75
      ],
      "type": "VEC2"
    },
    {
      "bufferView": 0,
      "componentType": 5125,
      "count": 3642,
      "type": "SCALAR"
    },
    {
      "bufferView": 2,
      "byteOffset": 14640,
      "componentType": 5126,
      "count": 3166,
      "max": [
        4.023385047912598,
        10.257550239562988,
        9.48735237121582
      ],
      "min": [
        -3.8380939960479736,
        -11.348166465759277,
        -0.3815009891986847
      ],
      "type": "VEC3"
    },
    {
      "bufferView": 2,
      "byteOffset": 52632,
      "componentType": 5126,
      "count": 3166,
      "max": [
        0.9974128603935242,
        1.0,
        0.9999999403953552
      ],
      "min": [
        -0.9997726082801819,
        -1.0,
        -0.9475312829017639
      ],
      "type": "VEC3"
    },
    {
      "bufferView": 0,
      "byteOffset": 14568,
      "componentType": 5125,
      "count": 9186,
      "type": "SCALAR"
    },
    {
      "bufferView": 2,
      "byteOffset": 90624,
      "componentType": 5126,
      "count": 2894,
      "max": [
        4.023149013519287,
        7.365950107574463,
        1.2788430452346802
      ],
      "min": [
        -3.8378589153289795,
        -6.953557968139648,
        -0.3831169903278351
      ],
      "type": "VEC3"
    },
    {
      "bufferView": 2,
      "byteOffset": 125352,
      "componentType": 5126,
      "count": 2894,
      "max": [
        0.0012955389684066176,
        1.0,
        0.9999039173126221
      ],
      "min": [
        -0.024161865934729576,
        -1.0,
        -0.9991337656974792
      ],
      "type": "VEC3"
    },
    {
      "bufferView": 1,
      "byteOffset": 4880,
      "componentType": 5126,
      "count": 2894,
      "max": [
        0.875,
        0.75
      ],
      "min": [
        0.375,
        0.08866100013256073
      ],
      "type": "VEC2"
    },
    {
      "bufferView": 0,
      "byteOffset": 51312,
      "componentType": 5125,
      "count": 8556,
      "type": "SCALAR"
    },
    {
      "bufferView": 2,
      "byteOffset": 160080,
      "componentType": 5126,
      "count": 2946,
      "max": [
        3.896243095397949,
        11.298628807067871,
        13.353476524353027
      ],
      "min": [
        -3.710951089859009,
        2.454957962036133,
        8.39576244354248
      ],
      "type": "VEC3"
    },
    {
      "bufferView": 2,
      "byteOffset": 195432,
      "componentType": 5126,
      "count": 2946,
      "max": [
        0.999798595905304,
        0.999919056892395,
        0.9987776875495911
      ],
      "min": [
        -0.999798595905304,
        -0.9998303055763245,
        -0.9999189376831055
      ],
      "type": "VEC3"
    },
    {
      "bufferView": 1,
      "byteOffset": 28032,
      "componentType": 5126,
      "count": 2946,
      "max": [
        1.0,
        0.9610329866409302
      ],
      "min": [
        0.0,
        0.5638350248336792
      ],
      "type": "VEC2"
    },
    {
      "bufferView": 0,
      "byteOffset": 85536,
      "componentType": 5125,
      "count": 12108,
      "type": "SCALAR"
    },
    {
      "bufferView": 2,
      "byteOffset": 230784,
      "componentType": 5126,
      "count": 900,
      "max": [
        3.5740320682525635,
        7.4415178298950195,
        10.585257530212402
      ],
      "min": [
        -3.3887410163879395,
        1.9326759576797485,
        8.468524932861328
      ],
      "type": "VEC3"
    },
    {
      "bufferView": 2,
      "byteOffset": 241584,
      "componentType": 5126,
      "count": 900,
      "max": [
        0.9996420741081238,
        0.8110441565513611,
        0.7956253290176392
      ],
      "min": [
        -0.9996420741081238,
        -0.9059937596321106,
        -0.7408095598220825
      ],
      "type": "VEC3"
    },
    {
      "bufferView": 1,
      "byteOffset": 51600,
      "componentType": 5126,
      "count": 900,
      "max": [
        0.875,
        0.75
      ],
      "min": [
        0.625,
        0.7161579728126526
      ],
      "type": "VEC2"
    },
    {
      "bufferView": 0,
      "byteOffset": 133968,
      "componentType": 5125,
      "count": 5376,
      "type": "SCALAR"
    },
    {
      "bufferView": 2,
      "byteOffset": 252384,
      "componentType": 5126,
      "count": 59690,
      "max": [
        4.341536045074463,
        4.294137954711914,
        12.89006233215332
      ],
      "min": [
        -4.846017837524414,
        -6.825785160064697,
        4.4448561668396
      ],
      "type": "VEC3"
    },
    {
      "bufferView": 2,
      "byteOffset": 968664,
      "componentType": 5126,
      "count": 59690,
      "max": [
        0.999951958656311,
        0.9999328851699829,
        0.999915361404419
      ],
      "min": [
        -0.9999856948852539,
        -0.9999274015426636,
        -0.9999897480010986
      ],
      "type": "VEC3"
    },
    {
      "bufferView": 1,
      "byteOffset": 58800,
      "componentType": 5126,
      "count": 59690,
      "max": [
        1.0,
        1.0
      ],
      "min": [
        1.0,
        -4.7332940101623535
      ],
      "type": "VEC2"
    },
    {
      "bufferView": 0,
      "byteOffset": 155472,
      "componentType": 5125,
      "count": 346368,
      "type": "SCALAR"
    },
    {
      "bufferView": 2,
      "byteOffset": 1684944,
      "componentType": 5126,
      "count": 1746,
      "max": [
        3.593242883682251,
        10.85013198852539,
        14.747976303100586
      ],
      "min": [
        -3.407952070236206,
        3.2754909992218018,
        10.7941312789917
      ],
      "type": "VEC3"
    },
    {
      "bufferView": 2,
      "byteOffset": 1705896,
      "componentType": 5126,
      "count": 1746,
      "max": [
        0.9996077418327332,
        0.9909816980361938,
        0.8199981451034546
      ],
      "min": [
        -0.9996077418327332,
        -0.9999175071716309,
        -0.8201950192451477
      ],
      "type": "VEC3"
    },
    {
      "bufferView": 1,
      "byteOffset": 536320,
      "componentType": 5126,
      "count": 1746,
      "max": [
        0.875,
        0.625
      ],
      "min": [
        0.625,
        0.5
      ],
      "type": "VEC2"
    },
    {
      "bufferView": 0,
      "byteOffset": 1540944,
      "componentType": 5125,
      "count": 10464,
      "type": "SCALAR"
    },
    {
      "bufferView": 2,
      "byteOffset": 1726848,
      "componentType": 5126,
      "count": 44421,
      "max": [
        4.06894588470459,
        12.405708312988281,
        9.48735237121582
      ],
      "min": [
        -3.883655071258545,
        -13.579313278198242,
        2.0315070152282715
      ],
      "type": "VEC3"
    },
    {
      "bufferView": 2,
      "byteOffset": 2259900,
      "componentType": 5126,
      "count": 44421,
      "max": [
        1.0,
        1.0,
        0.9999994039535522
      ],
      "min": [
        -1.0,
        -1.0,
        -0.9999994039535522
      ],
      "type": "VEC3"
    },
    {
      "bufferView": 1,
      "byteOffset": 550288,
      "componentType": 5126,
      "count": 44421,
      "max": [
        1.0,
        0.7862210273742676
      ],
      "min": [
        0.0,
        0.5558329820632935
      ],
      "type": "VEC2"
    },
    {
      "bufferView": 0,
      "byteOffset": 1582800,
      "componentType": 5125,
      "count": 228312,
      "type": "SCALAR"
    },
    {
      "bufferView": 2,
      "byteOffset": 2792952,
      "componentType": 5126,
      "count": 4798,
      "max": [
        3.638108015060425,
        4.161643981933594,
        15.310851097106934
      ],
      "min": [
        -3.452816963195801,
        -6.412787914276123,
        4.056272029876709
      ],
      "type": "VEC3"
    },
    {
      "bufferView": 2,
      "byteOffset": 2850528,
      "componentType": 5126,
      "count": 4798,
      "max": [
        0.998975932598114,
        0.9994553923606873,
        0.9450527429580688
      ],
      "min": [
        -0.998975932598114,
        -0.9994685053825378,
        -0.9902216792106628
      ],
      "type": "VEC3"
    },
    {
      "bufferView": 1,
      "byteOffset": 905656,
      "componentType": 5126,
      "count": 4798,
      "max": [
        0.625,
        0.75
      ],
      "min": [
        0.0,
        0.0
      ],
      "type": "VEC2"
    },
    {
      "bufferView": 0,
      "byteOffset": 2496048,
      "componentType": 5125,
      "count": 20928,
      "type": "SCALAR"
    },
    {
      "bufferView": 2,
      "byteOffset": 2908104,
      "componentType": 5126,
      "count": 65532,
      "max": [
        4.023385047912598,
        12.66424560546875,
        1.6969490051269531
      ],
      "min": [
        -3.8380939960479736,
        -14.01070785522461,
        -0.38372498750686646
      ],
      "type": "VEC3"
    },
    {
      "bufferView": 2,
      "byteOffset": 3694488,
      "componentType": 5126,
      "count": 65532,
      "max": [
        0.9999945163726807,
        0.9999568462371826,
        0.9999996423721313
      ],
      "min": [
        -0.9999945163726807,
        -0.9993977546691895,
        -0.999998927116394
      ],
      "type": "VEC3"
    },
    {
      "bufferView": 1,
      "byteOffset": 944040,
      "componentType": 5126,
      "count": 65532,
      "max": [
        0.875,
        0.75
      ],
      "min": [
        0.6249840259552002,
        0.75
      ],
      "type": "VEC2"
    },
    {
      "bufferView": 0,
      "byteOffset": 2579760,
      "componentType": 5125,
      "count": 359718,
      "type": "SCALAR"
    },
    {
      "bufferView": 2,
      "byteOffset": 4480872,
      "componentType": 5126,
      "count": 3815,
      "max": [
        4.3906049728393555,
        12.68109130859375,
        3.542884111404419
      ],
      "min": [
        -4.2053141593933105,
        -14.020044326782227,
        -0.38363999128341675
      ],
      "type": "VEC3"
    },
    {
      "bufferView": 2,
      "byteOffset": 4526652,
      "componentType": 5126,
      "count": 3815,
      "max": [
        0.9944332242012024,
        0.9979628920555115,
        0.9999990463256836
      ],
      "min": [
        -0.9946120977401733,
        -0.9930602312088013,
        -0.9999977350234985
      ],
      "type": "VEC3"
    },
    {
      "bufferView": 1,
      "byteOffset": 1468296,
      "componentType": 5126,
      "count": 3815,
      "max": [
        0.875,
        0.75
      ],
      "min": [
        0.6249840259552002,
        0.75
      ],
      "type": "VEC2"
    },
    {
      "bufferView": 0,
      "byteOffset": 4018632,
      "componentType": 5125,
      "count": 15990,
      "type": "SCALAR"
    },
    {
      "bufferView": 2,
      "byteOffset": 4572432,
      "componentType": 5126,
      "count": 1990,
      "max": [
        4.008355140686035,
        9.270926475524902,
        1.380031943321228
      ],
      "min": [
        -3.823064088821411,
        -3.137885093688965,
        -0.3331660032272339
      ],
      "type": "VEC3"
    },
    {
      "bufferView": 2,
      "byteOffset": 4596312,
      "componentType": 5126,
      "count": 1990,
      "max": [
        -0.0,
        0.9996646046638489,
        0.2981868088245392
      ],
      "min": [
        -0.9633486866950989,
        -0.9996646046638489,
        -0.0801040455698967
      ],
      "type": "VEC3"
    },
    {
      "bufferView": 1,
      "byteOffset": 1498816,
      "componentType": 5126,
      "count": 1990,
      "max": [
        0.375,
        0.6594740152359009
      ],
      "min": [
        0.375,
        0.08931200206279755
      ],
      "type": "VEC2"
    },
    {
      "bufferView": 0,
      "byteOffset": 4082592,
      "componentType": 5125,
      "count": 5916,
      "type": "SCALAR"
    },
    {
      "bufferView": 2,
      "byteOffset": 4620192,
      "componentType": 5126,
      "count": 21053,
      "max": [
        4.069961071014404,
        3.995495080947876,
        14.82777214050293
      ],
      "min": [
        -3.884665012359619,
        -5.233081817626953,
        5.257168769836426
      ],
      "type": "VEC3"
    },
    {
      "bufferView": 2,
      "byteOffset": 4872828,
      "componentType": 5126,
      "count": 21053,
      "max": [
        0.9999862909317017,
        0.9991292357444763,
        0.9945873022079468
      ],
      "min": [
        -0.9999712705612183,
        -0.9991217255592346,
        -0.9999780654907227
      ],
      "type": "VEC3"
    },
    {
      "bufferView": 1,
      "byteOffset": 1514736,
      "componentType": 5126,
      "count": 21053,
      "max": [
        1.0000009536743164,
        0.8054800033569336
      ],
      "min": [
        -9.999999747378752e-06,
        0.49833399057388306
      ],
      "type": "VEC2"
    },
    {
      "bufferView": 0,
      "byteOffset": 4106256,
      "componentType": 5125,
      "count": 112626,
      "type": "SCALAR"
    },
    {
      "bufferView": 2,
      "byteOffset": 5125464,
      "componentType": 5126,
      "count": 4895,
      "max": [
        4.458683013916016,
        12.576545715332031,
        7.053430080413818
      ],
      "min": [
        -4.273392200469971,
        -6.39589786529541,
        2.029110908508301
      ],
      "type": "VEC3"
    },
    {
      "bufferView": 2,
      "byteOffset": 5184204,
      "componentType": 5126,
      "count": 4895,
      "max": [
        0.9989061951637268,
        0.999747097492218,
        0.9932190775871277
      ],
      "min": [
        -0.9989061951637268,
        -0.9996433854103088,
        -0.9957401156425476
      ],
      "type": "VEC3"
    },
    {
      "bufferView": 1,
      "byteOffset": 1683160,
      "componentType": 5126,
      "count": 4895,
      "max": [
        1.0,
        0.836558997631073
      ],
      "min": [
        0.0,
        0.75
      ],
      "type": "VEC2"
    },
    {
      "bufferView": 0,
      "byteOffset": 4556760,
      "componentType": 5125,
      "count": 21969,
      "type": "SCALAR"
    },
    {
      "bufferView": 2,
      "byteOffset": 5242944,
      "componentType": 5126,
      "count": 9940,
      "max": [
        4.237811088562012,
        11.704444885253906,
        8.792889595031738
      ],
      "min": [
        -4.052518844604492,
        -13.699508666992188,
        2.2871170043945313
      ],
      "type": "VEC3"
    },
    {
      "bufferView": 2,
      "byteOffset": 5362224,
      "componentType": 5126,
      "count": 9940,
      "max": [
        0.9998689293861389,
        0.9996619820594788,
        0.9953030943870544
      ],
      "min": [
        -0.9998688101768494,
        -0.9996849894523621,
        -0.9996899962425232
      ],
      "type": "VEC3"
    },
    {
      "bufferView": 1,
      "byteOffset": 1722320,
      "componentType": 5126,
      "count": 9940,
      "max": [
        0.875,
        0.75
      ],
      "min": [
        0.625,
        0.75
      ],
      "type": "VEC2"
    },
    {
      "bufferView": 0,
      "byteOffset": 4644636,
      "componentType": 5125,
      "count": 59616,
      "type": "SCALAR"
    }
  ],
  "asset": {
    "extras": {
      "author": "azclavell (https://sketchfab.com/azclavell)",
      "license": "CC-BY-4.0 (http://creativecommons.org/licenses/by/4.0/)",
      "source": "https://sketchfab.com/3d-models/jordan1-lowpoly-791082a9e2d04b4185c7cc390a90e42c",
      "title": "Jordan1 LOWPOLY"
    },
    "generator": "Sketchfab-12.67.0",
    "version": "2.0"
  },
  "bufferViews": [
    {
      "buffer": 0,
      "byteLength": 4883100,
      "name": "floatBufferViews",
      "target": 34963
    },
    {
      "buffer": 0,
      "byteLength": 1801840,
      "byteOffset": 4883100,
      "byteStride": 8,
      "name": "floatBufferViews",
      "target": 34962
    },
    {
      "buffer": 0,
      "byteLength": 5481504,
      "byteOffset": 6684940,
      "byteStride": 12,
      "name": "floatBufferViews",
      "target": 34962
    }
  ],
  "buffers": [
    {
      "byteLength": 12166444,
      "uri": "scene.bin"
    }
  ],
  "materials": [
    {
      "doubleSided": true,
      "name": "Material.001",
      "pbrMetallicRoughness": {
        "metallicFactor": 0.0,
        "roughnessFactor": 0.6
      }
    },
    {
      "doubleSided": true,
      "name": "Material.011",
      "pbrMetallicRoughness": {
        "metallicFactor": 0.0,
        "roughnessFactor": 0.6
      }
    },
    {
      "doubleSided": true,
      "name": "Material.021",
      "pbrMetallicRoughness": {
        "metallicFactor": 0.0,
        "roughnessFactor": 0.6
      }
    },
    {
      "doubleSided": true,
      "name": "Material.002",
      "pbrMetallicRoughness": {
        "metallicFactor": 0.0,
        "roughnessFactor": 0.6
      }
    },
    {
      "doubleSided": true,
      "name": "Material.012",
      "pbrMetallicRoughness": {
        "metallicFactor": 0.0,
        "roughnessFactor": 0.6
      }
    },
    {
      "doubleSided": true,
      "name": "Material.022",
      "pbrMetallicRoughness": {
        "metallicFactor": 0.0,
        "roughnessFactor": 0.6
      }
    },
    {
      "doubleSided": true,
      "name": "Material.003",
      "pbrMetallicRoughness": {
        "metallicFactor": 0.0,
        "roughnessFactor": 0.6
      }
    },
    {
      "doubleSided": true,
      "name": "Material.013",
      "pbrMetallicRoughness": {
        "metallicFactor": 0.0,
        "roughnessFactor": 0.6
      }
    },
    {
      "doubleSided": true,
      "name": "Material.004",
      "pbrMetallicRoughness": {
        "metallicFactor": 0.0,
        "roughnessFactor": 0.6
      }
    },
    {
      "doubleSided": true,
      "name": "Material.005",
      "pbrMetallicRoughness": {
        "metallicFactor": 0.0,
        "roughnessFactor": 0.6
      }
    },
    {
      "doubleSided": true,
      "name": "WHITE_LEATHER",
      "pbrMetallicRoughness": {
        "metallicFactor": 0.0,
        "roughnessFactor": 0.6
      }
    },
    {
      "doubleSided": true,
      "name": "WHITE_LEATHER2",
      "pbrMetallicRoughness": {
        "metallicFactor": 0.0,
        "roughnessFactor": 0.6
      }
    }
  ],
  "meshes": [
    {
      "name": "Object_0",
      "primitives": [
        {
          "attributes": {
            "NORMAL": 1,
            "POSITION": 0,
            "TEXCOORD_0": 2
          },
          "indices": 3,
          "material": 3,
          "mode": 4
        }
      ]
    },
    {
      "name": "Object_1",
      "primitives": [
        {
          "attributes": {
            "NORMAL": 5,
            "POSITION": 4
          },
          "indices": 6,
          "material": 0,
          "mode": 4
        }
      ]
    },
    {
      "name": "Object_2",
      "primitives": [
        {
          "attributes": {
            "NORMAL": 8,
            "POSITION": 7,
            "TEXCOORD_0": 9
          },
          "indices": 10,
          "material": 1,
          "mode": 4
        }
      ]
    },
    {
      "name": "Object_3",
      "primitives": [
        {
          "attributes": {
            "NORMAL": 12,
            "POSITION": 11,
            "TEXCOORD_0": 13
          },
          "indices": 14,
          "material": 2,
          "mode": 4
        }
      ]
    },
    {
      "name": "Object_4",
      "primitives": [
        {
          "attributes": {
            "NORMAL": 16,
            "POSITION": 15,
            "TEXCOORD_0": 17
          },
          "indices": 18,
          "material": 3,
          "mode": 4
        }
      ]
    },
    {
      "name": "Object_5",
      "primitives": [
        {
          "attributes": {
            "NORMAL": 20,
            "POSITION": 19,
            "TEXCOORD_0": 21
          },
          "indices": 22,
          "material": 4,
          "mode": 4
        }
      ]
    },
    {
      "name": "Object_6",
      "primitives": [
        {
          "attributes": {
            "NORMAL": 24,
            "POSITION": 23,
            "TEXCOORD_0": 25
          },
          "indices": 26,
          "material": 5,
          "mode": 4
        }
      ]
    },
    {
      "name": "Object_7",
      "primitives": [
        {
          "attributes": {
            "NORMAL": 28,
            "POSITION": 27,
            "TEXCOORD_0": 29
          },
          "indices": 30,
          "material": 6,
          "mode": 4
        }
      ]
    },
    {
      "name": "Object_8",
      "primitives": [
        {
          "attributes": {
            "NORMAL": 32,
            "POSITION": 31,
            "TEXCOORD_0": 33
          },
          "indices": 34,
          "material": 7,
          "mode": 4
        }
      ]
    },
    {
      "name": "Object_9",
      "primitives": [
        {
          "attributes": {
            "NORMAL": 36,
            "POSITION": 35,
            "TEXCOORD_0": 37
          },
          "indices": 38,
          "material": 8,
          "mode": 4
        }
      ]
    },
    {
      "name": "Object_10",
      "primitives": [
        {
          "attributes": {
            "NORMAL": 40,
            "POSITION": 39,
            "TEXCOORD_0": 41
          },
          "indices": 42,
          "material": 9,
          "mode": 4
        }
      ]
    },
    {
      "name": "Object_11",
      "primitives": [
        {
          "attributes": {
            "NORMAL": 44,
            "POSITION": 43,
            "TEXCOORD_0": 45
          },
          "indices": 46,
          "material": 10,
          "mode": 4
        }
      ]
    },
    {
      "name": "Object_12",
      "primitives": [
        {
          "attributes": {
            "NORMAL": 48,
            "POSITION": 47,
            "TEXCOORD_0": 49
          },
          "indices": 50,
          "material": 11,
          "mode": 4
        }
      ]
    },
    {
      "name": "Object_13",
      "primitives": [
        {
          "attributes": {
            "NORMAL": 52,
            "POSITION": 51,
            "TEXCOORD_0": 53
          },
          "indices": 54,
          "material": 0,
          "mode": 4
        }
      ]
    },
    {
      "name": "Object_14",
      "primitives": [
        {
          "attributes": {
            "NORMAL": 56,
            "POSITION": 55,
            "TEXCOORD_0": 57
          },
          "indices": 58,
          "material": 1,
          "mode": 4
        }
      ]
    }
  ],
  "nodes": [
    {
      "children": [
        1
      ],
      "matrix": [
        1.0,
        0.0,
        0.0,
        0.0,
        0.0,
        2.220446049250313e-16,
        -1.0,
        0.0,
        0.0,
        1.0,
        2.220446049250313e-16,
        0.0,
        0.0,
        0.0,
        0.0,
        1.0
      ],
      "name": "Sketchfab_model"
    },
    {
      "children": [
        2,
        3,
        4,
        5,
        6,
        7,
        8,
        9,
        10,
        11,
        12,
        13,
        14,
        15,
        16
      ],
      "name": "jordan1 LOWPOLY .obj.cleaner.materialmerger.gles"
    },
    {
      "mesh": 0,
      "name": "Object_2"
    },
    {
      "mesh": 1,
      "name": "Object_3"
    },
    {
      "mesh": 2,
      "name": "Object_4"
    },
    {
      "mesh": 3,
      "name": "Object_5"
    },
    {
      "mesh": 4,
      "name": "Object_6"
    },
    {
      "mesh": 5,
      "name": "Object_7"
    },
    {
      "mesh": 6,
      "name": "Object_8"
    },
    {
      "mesh": 7,
      "name": "Object_9"
    },
    {
      "mesh": 8,
      "name": "Object_10"
    },
    {
      "mesh": 9,
      "name": "Object_11"
    },
    {
      "mesh": 10,
      "name": "Object_12"
    },
    {
      "mesh": 11,
      "name": "Object_13"
    },
    {
      "mesh": 12,
      "name": "Object_14"
    },
    {
      "mesh": 13,
      "name": "Object_15"
    },
    {
      "mesh": 14,
      "name": "Object_16"
    }
  ],
  "scene": 0,
  "scenes": [
    {
      "name": "Sketchfab_Scene",
      "nodes": [
        0
      ]
    }
  ]
}
